<svg width="32" height="30" viewBox="0 0 32 30" fill="none" xmlns="http://www.w3.org/2000/svg">
<path d="M31.7079 17.9051C29.5464 17.1459 28.5183 14.8453 26.9761 13.3614C26.2166 12.6252 25.2936 11.9926 24.2304 11.82C23.6579 11.728 23.0854 11.7625 22.5363 11.889C22.6181 11.774 22.6999 11.6705 22.7817 11.5554C23.4476 10.6122 24.1136 9.59994 24.4174 8.48416C24.7445 7.28786 24.5693 6.04554 24.2772 4.86074C23.9383 3.48039 23.506 2.11154 23.0387 0.7657C22.9686 0.57015 22.7116 0.40911 22.5129 0.558648C21.438 1.32934 20.2931 1.99651 19.078 2.52565C17.8629 3.05478 16.5426 3.36536 15.386 4.02103C14.3578 4.60768 13.5049 5.47039 13.2128 6.63219C13.0843 7.14982 13.0492 7.70196 13.0843 8.2426C12.2664 7.32236 11.0747 6.75872 9.81289 6.62069C8.76137 6.50566 7.69817 6.6897 6.70507 7.0463C5.72365 7.40289 4.88242 8.00104 3.92437 8.40364C2.82612 8.86376 1.58767 8.93277 0.442677 8.6452C0.115537 8.56468 -0.0830841 8.88676 0.0337516 9.16283C0.571196 10.4051 0.874969 11.7165 1.37736 12.9703C1.83302 14.1091 2.49898 15.1098 3.49209 15.8575C4.35667 16.5132 5.33809 16.9273 6.36624 17.1459C3.88932 19.1704 2.30036 22.0921 1.96154 25.2554C1.92649 25.543 2.28868 25.6695 2.49898 25.566C3.59724 25.0139 4.85906 25.0484 6.06247 25.1749C7.27756 25.3014 8.46928 25.4625 9.69606 25.3935C11.5888 25.2784 13.5166 24.6688 14.8952 23.3689C14.9069 23.5185 14.9303 23.668 14.9653 23.8176C15.3626 26.0721 16.9749 27.8321 19.078 28.7178C20.3982 29.2814 21.8353 29.4885 23.2607 29.5C23.5411 29.5 23.693 29.2009 23.5761 28.9709C23.2023 28.2577 23.0971 27.418 23.3074 26.6243C23.5177 25.8651 24.0669 25.2439 24.3473 24.5077C24.8029 23.3229 24.7445 21.9771 24.2304 20.8268C24.4641 20.8613 24.7094 20.8843 24.9548 20.9073C26.2634 20.9993 27.6654 21.0223 28.8922 20.5277C29.5348 20.2747 30.1189 19.9296 30.6914 19.5385C30.9835 19.3429 31.2639 19.1359 31.5443 18.9288C31.7897 18.7448 32 18.5837 32 18.2616C31.9649 18.0776 31.8598 17.9511 31.7079 17.9051ZM13.8437 6.95427C14.3578 4.46964 17.3021 4.00952 19.2999 3.15831C20.4216 2.67519 21.4848 2.08854 22.4896 1.39836C22.805 2.3416 23.0971 3.28484 23.3658 4.23958C23.6696 5.35537 23.9734 6.50566 23.8332 7.66745C23.7047 8.77173 23.1088 9.74948 22.5129 10.6582C22.0456 11.3599 21.5666 12.0041 20.9123 12.5102C20.8656 12.5332 20.8188 12.5562 20.7721 12.5907C20.7137 12.6252 20.6786 12.6597 20.6436 12.7057C20.5501 12.7632 20.4566 12.8323 20.3515 12.8898C19.6621 13.2694 18.9144 13.5224 18.1433 13.7295C18.0849 13.6375 18.0264 13.5454 17.9563 13.4649C18.7976 11.9465 19.5804 10.3936 20.3047 8.80624C20.3398 8.73723 20.3748 8.6567 20.4099 8.58769C20.5384 8.6337 20.6786 8.66821 20.8188 8.66821C21.4147 8.66821 21.882 8.19659 21.882 7.62144C21.882 7.03479 21.403 6.57468 20.8188 6.57468C20.2346 6.57468 19.7556 7.0463 19.7556 7.62144C19.7556 7.93202 19.8958 8.20809 20.1061 8.40364C19.4518 9.86451 18.7391 11.2909 17.9797 12.7057C17.8862 12.8783 17.7928 13.0393 17.6993 13.2119C17.3137 12.8783 16.8113 12.6712 16.2622 12.6482C16.309 11.4979 16.601 10.3591 17.1151 9.32387C17.1852 9.18584 17.2553 9.0478 17.3371 8.90977C17.4189 8.93277 17.5007 8.94428 17.5825 8.94428C18.1783 8.94428 18.6457 8.47266 18.6457 7.89751C18.6457 7.32236 18.1666 6.85075 17.5825 6.85075C16.9866 6.85075 16.5193 7.32236 16.5193 7.89751C16.5193 8.2656 16.7179 8.58769 17.01 8.78324C16.3907 9.86451 16.0286 11.0838 15.9234 12.3146C15.9117 12.4067 15.9117 12.4987 15.9117 12.5907C14.4513 11.1413 13.4348 8.96728 13.8437 6.95427ZM2.01996 12.6942C1.59935 11.6245 1.30725 10.5087 0.898324 9.4274C1.86806 9.56544 2.86117 9.48491 3.79586 9.16283C4.99926 8.74873 6.01573 7.94352 7.24251 7.56393C8.39918 7.20734 9.63764 7.14982 10.806 7.51792C11.9977 7.88601 13.2011 9.46191 13.4932 10.0946C13.9489 11.0723 14.4396 12.0386 15.1757 12.8323C14.9069 12.9588 14.6616 13.1313 14.463 13.3499C14.3228 13.2924 14.1825 13.2464 14.0423 13.2119C13.5283 13.0623 13.0142 12.9358 12.4884 12.8323C11.4135 12.6022 10.3153 12.4297 9.21704 12.3376C8.90158 12.3146 8.58613 12.2916 8.27067 12.2686C8.11878 11.8545 7.73321 11.5669 7.26587 11.5669C6.67001 11.5669 6.20267 12.0386 6.20267 12.6137C6.20267 13.2004 6.68169 13.6605 7.26587 13.6605C7.85005 13.6605 8.32909 13.1889 8.32909 12.6137C10.1517 12.7172 11.951 13.0048 13.7152 13.4764C13.8905 13.5224 14.0657 13.5685 14.2293 13.6375C13.9839 13.9941 13.8437 14.4312 13.8437 14.9028C13.8437 14.9488 13.8437 14.9948 13.8437 15.0408C13.4582 15.2939 13.0259 15.4779 12.5936 15.662C12.0094 15.9035 11.4019 16.1106 10.7826 16.2716C9.55586 16.5937 8.2473 16.7318 6.98548 16.5247C5.93395 16.3522 4.91748 15.9726 4.04121 15.3629C3.08316 14.6957 2.44057 13.7525 2.01996 12.6942ZM9.00673 24.6803C6.92705 24.6918 4.73054 23.9786 2.73265 24.6688C3.2 21.7815 4.824 19.0899 7.20745 17.3299C7.23082 17.3069 7.2542 17.2839 7.27757 17.2609C8.37582 17.3759 9.49744 17.2839 10.584 17.0423C11.3551 16.8698 12.1029 16.6167 12.8389 16.3177C13.2362 16.1566 13.6334 15.9841 14.0073 15.777C14.1826 16.2026 14.4863 16.5592 14.8719 16.8123C14.5564 17.1114 14.2293 17.3989 13.8905 17.652C13.1077 18.2386 12.2431 18.7103 11.3201 19.0553C11.1565 19.1129 10.9929 19.1704 10.8177 19.2279C10.6191 19.0438 10.362 18.9288 10.0699 18.9288C9.47407 18.9288 9.00673 19.4004 9.00673 19.9756C9.00673 20.5622 9.48575 21.0223 10.0699 21.0223C10.6541 21.0223 11.1331 20.5507 11.1331 19.9756C11.1331 19.8145 11.0981 19.665 11.028 19.527C11.5888 19.3429 12.1379 19.1014 12.6637 18.8253C13.5516 18.3537 14.3812 17.7555 15.1056 17.0653C15.1289 17.0423 15.164 17.0078 15.1873 16.9848C15.4561 17.1114 15.7598 17.1804 16.087 17.1919C15.3976 18.8483 14.8368 20.5737 14.8251 22.3567C13.3881 24.0246 11.1682 24.6688 9.00673 24.6803ZM23.3074 24.9448C22.9102 25.612 22.5714 26.2447 22.4779 27.0269C22.4078 27.6135 22.4896 28.2002 22.6882 28.7523C20.6903 28.6488 18.669 28.0736 17.2203 26.6473C15.6196 25.0829 15.2925 22.8168 15.7014 20.7003C15.9468 19.4464 16.4024 18.2501 16.9048 17.0768C17.045 17.0308 16.9983 17.0653 17.1268 16.9963C17.7577 18.4572 18.6106 19.8145 19.4635 21.1604C19.4869 21.2064 19.5219 21.2409 19.5453 21.2869C19.3116 21.4825 19.1598 21.77 19.1598 22.0921C19.1598 22.6788 19.6388 23.1389 20.223 23.1389C20.8188 23.1389 21.2862 22.6673 21.2862 22.0921C21.2862 21.517 20.8071 21.0454 20.223 21.0454C20.0944 21.0454 19.9659 21.0684 19.8491 21.1144C19.1013 19.9641 17.4773 17.1229 17.3722 16.8698C17.3838 16.8698 17.6292 16.6857 17.6292 16.6857C18.6223 18.1811 20.0711 19.4004 21.7301 20.1251C22.2442 20.3437 22.77 20.5277 23.3074 20.6543C24.1253 21.9771 24.1019 23.6105 23.3074 24.9448ZM30.7031 18.6297C30.4695 18.8023 30.2358 18.9633 29.9904 19.1129C29.5348 19.4004 29.0674 19.6765 28.565 19.8605C27.4434 20.2862 26.1816 20.2517 25.0015 20.1711C23.0387 20.0446 21.1693 19.2624 19.7089 17.9741C19.0896 17.4219 18.5639 16.8008 18.1199 16.1106C18.19 15.9956 18.2484 15.8805 18.3068 15.754C18.3769 15.7885 18.4471 15.8115 18.5172 15.8345C19.1247 16.3176 19.779 16.7318 20.4683 17.0768C21.5315 17.5945 22.6765 17.9396 23.8565 18.0776C23.915 18.0891 23.9734 18.0891 24.0318 18.1006C24.0785 18.6412 24.5342 19.0668 25.095 19.0668C25.6909 19.0668 26.1582 18.5952 26.1582 18.0201C26.1582 17.4449 25.6792 16.9733 25.095 16.9733C24.6043 16.9733 24.1837 17.3069 24.0669 17.7555C23.5177 17.698 22.9803 17.5945 22.4428 17.4449C21.3563 17.1459 20.3281 16.6742 19.3934 16.0531C19.5804 16.0761 19.7673 16.0876 19.9542 16.0991C20.3982 16.1106 20.8422 16.0646 21.2862 16.0071C21.8119 15.9381 22.326 15.846 22.8401 15.7195C22.9803 15.685 23.1088 15.6505 23.249 15.616C23.4243 15.9726 23.7864 16.2141 24.207 16.2141C24.8029 16.2141 25.2703 15.7425 25.2703 15.1674C25.2703 14.5807 24.7912 14.1206 24.207 14.1206C23.6229 14.1206 23.1438 14.5922 23.1438 15.1674C23.1438 15.2019 23.1438 15.2364 23.1555 15.2824C22.6181 15.4319 22.069 15.547 21.5081 15.6275C20.6786 15.754 19.814 15.823 18.9962 15.6275C18.9027 15.6045 18.7976 15.57 18.7041 15.547C18.6106 15.4779 18.5288 15.3974 18.4354 15.3169C18.4587 15.1789 18.4704 15.0523 18.4704 14.9028C18.4704 14.7187 18.4471 14.5462 18.412 14.3737C19.0896 14.1781 19.7673 13.9596 20.3982 13.649C20.7137 13.4879 21.0058 13.3154 21.2745 13.1083C22.2442 12.5907 23.3542 12.2686 24.4524 12.5907C25.4806 12.8898 26.3101 13.649 26.9994 14.4197C28.2613 15.8345 29.2777 17.56 31.0419 18.3882C30.9251 18.4917 30.7615 18.5837 30.7031 18.6297Z" fill="#484848" fill-opacity="0.15"/>
</svg>
