<svg width="32" height="29" viewBox="0 0 32 29" fill="none" xmlns="http://www.w3.org/2000/svg">
<path d="M31.7079 17.4051C29.5464 16.6459 28.5183 14.3453 26.9761 12.8614C26.2166 12.1252 25.2936 11.4926 24.2304 11.32C23.6579 11.228 23.0854 11.2625 22.5363 11.389C22.6181 11.274 22.6999 11.1705 22.7817 11.0554C23.4476 10.1122 24.1136 9.09994 24.4174 7.98416C24.7445 6.78786 24.5693 5.54554 24.2772 4.36074C23.9383 2.98039 23.506 1.61154 23.0387 0.2657C22.9686 0.0701499 22.7116 -0.0908896 22.5129 0.0586484C21.438 0.829344 20.2931 1.49651 19.078 2.02565C17.8629 2.55478 16.5426 2.86536 15.386 3.52103C14.3578 4.10768 13.5049 4.97039 13.2128 6.13219C13.0843 6.64982 13.0492 7.20196 13.0843 7.7426C12.2664 6.82236 11.0747 6.25872 9.81289 6.12069C8.76137 6.00566 7.69817 6.1897 6.70507 6.5463C5.72365 6.90289 4.88242 7.50104 3.92437 7.90364C2.82612 8.36376 1.58767 8.43277 0.442677 8.1452C0.115537 8.06468 -0.0830841 8.38676 0.0337516 8.66283C0.571196 9.90515 0.874969 11.2165 1.37736 12.4703C1.83302 13.6091 2.49898 14.6098 3.49209 15.3575C4.35667 16.0132 5.33809 16.4273 6.36624 16.6459C3.88932 18.6704 2.30036 21.5921 1.96154 24.7554C1.92649 25.043 2.28868 25.1695 2.49898 25.066C3.59724 24.5139 4.85906 24.5484 6.06247 24.6749C7.27756 24.8014 8.46928 24.9625 9.69606 24.8935C11.5888 24.7784 13.5166 24.1688 14.8952 22.8689C14.9069 23.0185 14.9303 23.168 14.9653 23.3176C15.3626 25.5721 16.9749 27.3321 19.078 28.2178C20.3982 28.7814 21.8353 28.9885 23.2607 29C23.5411 29 23.693 28.7009 23.5761 28.4709C23.2023 27.7577 23.0971 26.918 23.3074 26.1243C23.5177 25.3651 24.0669 24.7439 24.3473 24.0077C24.8029 22.8229 24.7445 21.4771 24.2304 20.3268C24.4641 20.3613 24.7094 20.3843 24.9548 20.4073C26.2634 20.4993 27.6654 20.5223 28.8922 20.0277C29.5348 19.7747 30.1189 19.4296 30.6914 19.0385C30.9835 18.8429 31.2639 18.6359 31.5443 18.4288C31.7897 18.2448 32 18.0837 32 17.7616C31.9649 17.5776 31.8598 17.4511 31.7079 17.4051ZM13.8437 6.45427C14.3578 3.96964 17.3021 3.50952 19.2999 2.65831C20.4216 2.17519 21.4848 1.58854 22.4896 0.89836C22.805 1.8416 23.0971 2.78484 23.3658 3.73958C23.6696 4.85537 23.9734 6.00566 23.8332 7.16745C23.7047 8.27173 23.1088 9.24948 22.5129 10.1582C22.0456 10.8599 21.5666 11.5041 20.9123 12.0102C20.8656 12.0332 20.8188 12.0562 20.7721 12.0907C20.7137 12.1252 20.6786 12.1597 20.6436 12.2057C20.5501 12.2632 20.4566 12.3323 20.3515 12.3898C19.6621 12.7694 18.9144 13.0224 18.1433 13.2295C18.0849 13.1375 18.0264 13.0454 17.9563 12.9649C18.7976 11.4465 19.5804 9.89365 20.3047 8.30624C20.3398 8.23723 20.3748 8.1567 20.4099 8.08769C20.5384 8.1337 20.6786 8.16821 20.8188 8.16821C21.4147 8.16821 21.882 7.69659 21.882 7.12144C21.882 6.53479 21.403 6.07468 20.8188 6.07468C20.2346 6.07468 19.7556 6.5463 19.7556 7.12144C19.7556 7.43202 19.8958 7.70809 20.1061 7.90364C19.4518 9.36451 18.7391 10.7909 17.9797 12.2057C17.8862 12.3783 17.7928 12.5393 17.6993 12.7119C17.3137 12.3783 16.8113 12.1712 16.2622 12.1482C16.309 10.9979 16.601 9.85914 17.1151 8.82387C17.1852 8.68584 17.2553 8.5478 17.3371 8.40977C17.4189 8.43277 17.5007 8.44428 17.5825 8.44428C18.1783 8.44428 18.6457 7.97266 18.6457 7.39751C18.6457 6.82236 18.1666 6.35075 17.5825 6.35075C16.9866 6.35075 16.5193 6.82236 16.5193 7.39751C16.5193 7.7656 16.7179 8.08769 17.01 8.28324C16.3907 9.36451 16.0286 10.5838 15.9234 11.8146C15.9117 11.9067 15.9117 11.9987 15.9117 12.0907C14.4513 10.6413 13.4348 8.46728 13.8437 6.45427ZM2.01996 12.1942C1.59935 11.1245 1.30725 10.0087 0.898324 8.9274C1.86806 9.06544 2.86117 8.98491 3.79586 8.66283C4.99926 8.24873 6.01573 7.44352 7.24251 7.06393C8.39918 6.70734 9.63764 6.64982 10.806 7.01792C11.9977 7.38601 13.2011 8.96191 13.4932 9.59457C13.9489 10.5723 14.4396 11.5386 15.1757 12.3323C14.9069 12.4588 14.6616 12.6313 14.463 12.8499C14.3228 12.7924 14.1825 12.7464 14.0423 12.7119C13.5283 12.5623 13.0142 12.4358 12.4884 12.3323C11.4135 12.1022 10.3153 11.9297 9.21704 11.8376C8.90158 11.8146 8.58613 11.7916 8.27067 11.7686C8.11878 11.3545 7.73321 11.0669 7.26587 11.0669C6.67001 11.0669 6.20267 11.5386 6.20267 12.1137C6.20267 12.7004 6.68169 13.1605 7.26587 13.1605C7.85005 13.1605 8.32909 12.6889 8.32909 12.1137C10.1517 12.2172 11.951 12.5048 13.7152 12.9764C13.8905 13.0224 14.0657 13.0685 14.2293 13.1375C13.9839 13.4941 13.8437 13.9312 13.8437 14.4028C13.8437 14.4488 13.8437 14.4948 13.8437 14.5408C13.4582 14.7939 13.0259 14.9779 12.5936 15.162C12.0094 15.4035 11.4019 15.6106 10.7826 15.7716C9.55586 16.0937 8.2473 16.2318 6.98548 16.0247C5.93395 15.8522 4.91748 15.4726 4.04121 14.8629C3.08316 14.1957 2.44057 13.2525 2.01996 12.1942ZM9.00673 24.1803C6.92705 24.1918 4.73054 23.4786 2.73265 24.1688C3.2 21.2815 4.824 18.5899 7.20745 16.8299C7.23082 16.8069 7.2542 16.7839 7.27757 16.7609C8.37582 16.8759 9.49744 16.7839 10.584 16.5423C11.3551 16.3698 12.1029 16.1167 12.8389 15.8177C13.2362 15.6566 13.6334 15.4841 14.0073 15.277C14.1826 15.7026 14.4863 16.0592 14.8719 16.3123C14.5564 16.6114 14.2293 16.8989 13.8905 17.152C13.1077 17.7386 12.2431 18.2103 11.3201 18.5553C11.1565 18.6129 10.9929 18.6704 10.8177 18.7279C10.6191 18.5438 10.362 18.4288 10.0699 18.4288C9.47407 18.4288 9.00673 18.9004 9.00673 19.4756C9.00673 20.0622 9.48575 20.5223 10.0699 20.5223C10.6541 20.5223 11.1331 20.0507 11.1331 19.4756C11.1331 19.3145 11.0981 19.165 11.028 19.027C11.5888 18.8429 12.1379 18.6014 12.6637 18.3253C13.5516 17.8537 14.3812 17.2555 15.1056 16.5653C15.1289 16.5423 15.164 16.5078 15.1873 16.4848C15.4561 16.6114 15.7598 16.6804 16.087 16.6919C15.3976 18.3483 14.8368 20.0737 14.8251 21.8567C13.3881 23.5246 11.1682 24.1688 9.00673 24.1803ZM23.3074 24.4448C22.9102 25.112 22.5714 25.7447 22.4779 26.5269C22.4078 27.1135 22.4896 27.7002 22.6882 28.2523C20.6903 28.1488 18.669 27.5736 17.2203 26.1473C15.6196 24.5829 15.2925 22.3168 15.7014 20.2003C15.9468 18.9464 16.4024 17.7501 16.9048 16.5768C17.045 16.5308 16.9983 16.5653 17.1268 16.4963C17.7577 17.9572 18.6106 19.3145 19.4635 20.6604C19.4869 20.7064 19.5219 20.7409 19.5453 20.7869C19.3116 20.9825 19.1598 21.27 19.1598 21.5921C19.1598 22.1788 19.6388 22.6389 20.223 22.6389C20.8188 22.6389 21.2862 22.1673 21.2862 21.5921C21.2862 21.017 20.8071 20.5454 20.223 20.5454C20.0944 20.5454 19.9659 20.5684 19.8491 20.6144C19.1013 19.4641 17.4773 16.6229 17.3722 16.3698C17.3838 16.3698 17.6292 16.1857 17.6292 16.1857C18.6223 17.6811 20.0711 18.9004 21.7301 19.6251C22.2442 19.8437 22.77 20.0277 23.3074 20.1543C24.1253 21.4771 24.1019 23.1105 23.3074 24.4448ZM30.7031 18.1297C30.4695 18.3023 30.2358 18.4633 29.9904 18.6129C29.5348 18.9004 29.0674 19.1765 28.565 19.3605C27.4434 19.7862 26.1816 19.7517 25.0015 19.6711C23.0387 19.5446 21.1693 18.7624 19.7089 17.4741C19.0896 16.9219 18.5639 16.3008 18.1199 15.6106C18.19 15.4956 18.2484 15.3805 18.3068 15.254C18.3769 15.2885 18.4471 15.3115 18.5172 15.3345C19.1247 15.8176 19.779 16.2318 20.4683 16.5768C21.5315 17.0945 22.6765 17.4396 23.8565 17.5776C23.915 17.5891 23.9734 17.5891 24.0318 17.6006C24.0785 18.1412 24.5342 18.5668 25.095 18.5668C25.6909 18.5668 26.1582 18.0952 26.1582 17.5201C26.1582 16.9449 25.6792 16.4733 25.095 16.4733C24.6043 16.4733 24.1837 16.8069 24.0669 17.2555C23.5177 17.198 22.9803 17.0945 22.4428 16.9449C21.3563 16.6459 20.3281 16.1742 19.3934 15.5531C19.5804 15.5761 19.7673 15.5876 19.9542 15.5991C20.3982 15.6106 20.8422 15.5646 21.2862 15.5071C21.8119 15.4381 22.326 15.346 22.8401 15.2195C22.9803 15.185 23.1088 15.1505 23.249 15.116C23.4243 15.4726 23.7864 15.7141 24.207 15.7141C24.8029 15.7141 25.2703 15.2425 25.2703 14.6674C25.2703 14.0807 24.7912 13.6206 24.207 13.6206C23.6229 13.6206 23.1438 14.0922 23.1438 14.6674C23.1438 14.7019 23.1438 14.7364 23.1555 14.7824C22.6181 14.9319 22.069 15.047 21.5081 15.1275C20.6786 15.254 19.814 15.323 18.9962 15.1275C18.9027 15.1045 18.7976 15.07 18.7041 15.047C18.6106 14.9779 18.5288 14.8974 18.4354 14.8169C18.4587 14.6789 18.4704 14.5523 18.4704 14.4028C18.4704 14.2187 18.4471 14.0462 18.412 13.8737C19.0896 13.6781 19.7673 13.4596 20.3982 13.149C20.7137 12.9879 21.0058 12.8154 21.2745 12.6083C22.2442 12.0907 23.3542 11.7686 24.4524 12.0907C25.4806 12.3898 26.3101 13.149 26.9994 13.9197C28.2613 15.3345 29.2777 17.06 31.0419 17.8882C30.9251 17.9917 30.7615 18.0837 30.7031 18.1297Z" fill="#FF8200"/>
</svg>
