<svg width="43" height="30" viewBox="0 0 43 30" fill="none" xmlns="http://www.w3.org/2000/svg">
<path fill-rule="evenodd" clip-rule="evenodd" d="M37.861 18.6958C38.8552 18.8745 39.8481 19.053 40.7677 19.5127C42.1861 20.2197 43.3236 21.8215 42.9163 23.4953C42.7618 24.2024 41.7086 23.8994 41.8631 23.1923C42.0456 22.3698 41.5962 21.5906 41.0205 21.0422C40.3183 20.364 39.3493 20.1043 38.4225 19.9167C38.1413 19.8594 37.8577 19.8076 37.5741 19.7558C36.1437 19.4946 34.7096 19.2327 33.5494 18.2573C32.117 17.0596 31.8783 14.9817 32.5383 13.2789C32.8894 12.3699 33.423 11.5906 34.055 10.8691C34.4201 10.4651 34.8133 10.0611 35.2487 9.71475C35.3048 9.67146 35.2908 9.58488 35.2346 9.55602C33.7741 8.7768 31.8923 9.09426 30.4459 9.80133C27.6793 11.1433 25.7273 14.1014 25.6571 17.2327C25.5728 20.5228 27.3985 23.7262 30.165 25.3712C30.7829 25.732 30.2352 26.6988 29.6173 26.338C27.8759 25.2991 26.4435 23.6973 25.5728 21.8359C25.3341 21.3308 25.1235 20.7969 24.969 20.2486C24.9549 20.1764 24.8847 20.162 24.8285 20.1909C24.1264 20.6526 23.6068 21.3308 23.1293 22.0235C22.5676 22.846 21.9918 23.6685 21.3458 24.4333C20.6998 25.1981 19.9977 25.9195 19.2534 26.5689C17.7226 27.9109 15.9532 29.2673 13.9029 29.4982C13.608 29.527 13.3552 29.2096 13.3552 28.9354C13.3552 28.6035 13.608 28.4015 13.9029 28.3726C14.9702 28.2572 15.9532 27.68 16.8239 27.0739C18.3967 25.9773 19.801 24.6209 21.0088 23.1057C21.3138 22.7178 21.5982 22.3023 21.8835 21.8853C22.6488 20.7668 23.421 19.6383 24.6179 19.0076C24.66 18.9932 24.6741 18.9499 24.6741 18.9066C24.5617 18.0985 24.5336 17.276 24.6179 16.4679C24.7162 15.4579 24.983 14.5055 25.3903 13.5964C25.4324 13.5098 25.3341 13.4232 25.2498 13.481C24.4353 14.0582 23.7191 14.8085 23.0591 15.5589C22.6465 16.0311 22.2398 16.5093 21.8324 16.9883C21.1442 17.7974 20.4541 18.6087 19.7308 19.3972C18.5372 20.6959 17.3013 21.9225 15.9672 23.048C13.4113 25.1981 10.4623 26.9152 7.20421 27.5934C6.9093 27.6511 6.61439 27.5213 6.53013 27.2038C6.44587 26.9296 6.61439 26.5689 6.9093 26.5112C8.67876 26.136 10.378 25.4578 11.9508 24.5343C14.8999 22.8171 17.3575 20.4073 19.6185 17.8532C20.0398 17.3759 20.4507 16.888 20.8616 16.4C21.5191 15.6192 22.1765 14.8385 22.8765 14.1014C23.9298 12.9903 25.1375 12.0235 26.584 11.5473C26.598 11.5473 26.612 11.5329 26.6261 11.5185C27.6793 10.1332 29.1118 9.0654 30.7267 8.45935C32.4821 7.81 34.6589 7.6657 36.2317 8.83452C36.2879 8.86338 36.33 8.9211 36.3721 8.97882C36.3862 9.00768 36.4283 9.02211 36.4704 9.00768C37.2147 8.74795 37.9871 8.74794 38.7314 9.09426C38.928 9.18084 39.1106 9.29628 39.2791 9.42615C39.3493 9.48387 39.4336 9.42615 39.4336 9.354C39.4336 6.94421 38.5067 4.4334 36.5687 3.0337C35.2065 2.05246 33.4933 1.69172 31.8502 1.634C30.1088 1.56185 28.3955 1.85045 26.7384 2.39878C23.3961 3.50989 20.5032 5.61665 17.9614 8.05531C16.6553 9.31071 15.4336 10.6527 14.2399 12.0235C13.9472 12.3619 13.6563 12.7033 13.3651 13.045C12.5389 14.0148 11.71 14.9876 10.8274 15.9052C9.64775 17.1462 8.3698 18.2861 6.92335 19.1663C5.32241 20.1332 3.53891 20.6959 1.68519 20.8546C1.39029 20.8835 1.13751 20.5805 1.13751 20.2919C1.13751 19.9744 1.39029 19.758 1.68519 19.7291C2.14862 19.6858 2.58397 19.6281 3.03335 19.5271C4.78876 19.1519 6.36161 18.3294 7.77998 17.2327C9.12814 16.1794 10.3078 14.8951 11.4312 13.6108C11.7775 13.2155 12.1224 12.8183 12.4673 12.421C14.5143 10.0634 16.5648 7.7017 18.9444 5.6888C21.7531 3.33673 25.0111 1.43198 28.6062 0.768201C31.8923 0.162144 35.9368 0.436312 38.3242 3.13471C40.1919 5.2559 40.88 8.31505 40.3885 11.1145V11.1289C40.3885 11.1722 40.3745 11.2299 40.3604 11.2876V11.302C40.3464 11.4031 40.3324 11.5041 40.3043 11.6051C40.22 11.9658 40.1217 12.139 39.7566 12.1245C39.4039 12.1111 39.3307 11.7232 39.2656 11.3787C39.2608 11.3528 39.2559 11.3272 39.251 11.302C39.1948 11.0423 38.6472 10.0611 37.8046 9.96006C36.9479 9.85905 36.1474 10.3785 35.5576 10.9413C34.4061 12.0235 33.3107 13.4665 33.2967 15.1404C33.2967 15.8908 33.5213 16.6123 34.0269 17.1606C34.5044 17.6945 35.1504 18.012 35.8104 18.2284C36.4784 18.4473 37.17 18.5716 37.861 18.6958ZM28.3113 4.77971C30.8812 3.87063 33.9005 3.81291 36.2036 5.45792C36.4564 5.63107 36.5687 5.94853 36.4143 6.25156C36.2738 6.49687 35.9087 6.62674 35.67 6.45358C33.1422 4.64984 29.8841 5.18375 27.258 6.43915C22.3263 8.7802 18.5215 12.9429 14.8647 16.9435L14.7455 17.074C12.8215 19.1808 10.8133 21.1865 8.32768 22.5862C5.92627 23.9426 3.27209 24.7651 0.547689 25.0249C0.25278 25.0537 0 24.7507 0 24.4621C0 24.1447 0.25278 23.9282 0.547689 23.8993C3.52487 23.6252 6.41779 22.5718 8.93154 20.8979C11.0273 19.5045 12.7227 17.644 14.4167 15.785C14.6523 15.5264 14.888 15.2678 15.1246 15.0105C17.0064 12.947 18.9444 10.9269 21.093 9.15198C23.2557 7.34824 25.6571 5.70323 28.3113 4.77971Z" fill="#FF8200"/>
</svg>
