<svg width="43" height="29" viewBox="0 0 43 29" fill="none" xmlns="http://www.w3.org/2000/svg">
<path fill-rule="evenodd" clip-rule="evenodd" d="M37.861 18.1958C38.8552 18.3745 39.8481 18.553 40.7677 19.0127C42.1861 19.7197 43.3236 21.3215 42.9163 22.9953C42.7618 23.7024 41.7086 23.3994 41.8631 22.6923C42.0456 21.8698 41.5962 21.0906 41.0205 20.5422C40.3183 19.864 39.3493 19.6043 38.4225 19.4167C38.1413 19.3594 37.8577 19.3076 37.5741 19.2558C36.1437 18.9946 34.7096 18.7327 33.5494 17.7573C32.117 16.5596 31.8783 14.4817 32.5383 12.7789C32.8894 11.8699 33.423 11.0906 34.055 10.3691C34.4201 9.96511 34.8133 9.56107 35.2487 9.21475C35.3048 9.17146 35.2908 9.08488 35.2346 9.05602C33.7741 8.2768 31.8923 8.59426 30.4459 9.30133C27.6793 10.6433 25.7273 13.6014 25.6571 16.7327C25.5728 20.0228 27.3985 23.2262 30.165 24.8712C30.7829 25.232 30.2352 26.1988 29.6173 25.838C27.8759 24.7991 26.4435 23.1973 25.5728 21.3359C25.3341 20.8308 25.1235 20.2969 24.969 19.7486C24.9549 19.6764 24.8847 19.662 24.8285 19.6909C24.1264 20.1526 23.6068 20.8308 23.1293 21.5235C22.5676 22.346 21.9918 23.1685 21.3458 23.9333C20.6998 24.6981 19.9977 25.4195 19.2534 26.0689C17.7226 27.4109 15.9532 28.7673 13.9029 28.9982C13.608 29.027 13.3552 28.7096 13.3552 28.4354C13.3552 28.1035 13.608 27.9015 13.9029 27.8726C14.9702 27.7572 15.9532 27.18 16.8239 26.5739C18.3967 25.4773 19.801 24.1209 21.0088 22.6057C21.3138 22.2178 21.5982 21.8023 21.8835 21.3853C22.6488 20.2668 23.421 19.1383 24.6179 18.5076C24.66 18.4932 24.6741 18.4499 24.6741 18.4066C24.5617 17.5985 24.5336 16.776 24.6179 15.9679C24.7162 14.9579 24.983 14.0055 25.3903 13.0964C25.4324 13.0098 25.3341 12.9232 25.2498 12.981C24.4353 13.5582 23.7191 14.3085 23.0591 15.0589C22.6465 15.5311 22.2398 16.0093 21.8324 16.4883C21.1442 17.2974 20.4541 18.1087 19.7308 18.8972C18.5372 20.1959 17.3013 21.4225 15.9672 22.548C13.4113 24.6981 10.4623 26.4152 7.20421 27.0934C6.9093 27.1511 6.61439 27.0213 6.53013 26.7038C6.44587 26.4296 6.61439 26.0689 6.9093 26.0112C8.67876 25.636 10.378 24.9578 11.9508 24.0343C14.8999 22.3171 17.3575 19.9073 19.6185 17.3532C20.0398 16.8759 20.4507 16.388 20.8616 15.9C21.5191 15.1192 22.1765 14.3385 22.8765 13.6014C23.9298 12.4903 25.1375 11.5235 26.584 11.0473C26.598 11.0473 26.612 11.0329 26.6261 11.0185C27.6793 9.63322 29.1118 8.5654 30.7267 7.95935C32.4821 7.31 34.6589 7.1657 36.2317 8.33452C36.2879 8.36338 36.33 8.4211 36.3721 8.47882C36.3862 8.50768 36.4283 8.52211 36.4704 8.50768C37.2147 8.24795 37.9871 8.24794 38.7314 8.59426C38.928 8.68084 39.1106 8.79628 39.2791 8.92615C39.3493 8.98387 39.4336 8.92615 39.4336 8.854C39.4336 6.44421 38.5067 3.9334 36.5687 2.5337C35.2065 1.55246 33.4933 1.19172 31.8502 1.134C30.1088 1.06185 28.3955 1.35045 26.7384 1.89878C23.3961 3.00989 20.5032 5.11665 17.9614 7.55531C16.6553 8.81071 15.4336 10.1527 14.2399 11.5235C13.9472 11.8619 13.6563 12.2033 13.3651 12.545C12.5389 13.5148 11.71 14.4876 10.8274 15.4052C9.64775 16.6462 8.3698 17.7861 6.92335 18.6663C5.32241 19.6332 3.53891 20.1959 1.68519 20.3546C1.39029 20.3835 1.13751 20.0805 1.13751 19.7919C1.13751 19.4744 1.39029 19.258 1.68519 19.2291C2.14862 19.1858 2.58397 19.1281 3.03335 19.0271C4.78876 18.6519 6.36161 17.8294 7.77998 16.7327C9.12814 15.6794 10.3078 14.3951 11.4312 13.1108C11.7775 12.7155 12.1224 12.3183 12.4673 11.921C14.5143 9.56336 16.5648 7.2017 18.9444 5.1888C21.7531 2.83673 25.0111 0.931977 28.6062 0.268201C31.8923 -0.337856 35.9368 -0.0636885 38.3242 2.63471C40.1919 4.7559 40.88 7.81505 40.3885 10.6145V10.6289C40.3885 10.6722 40.3745 10.7299 40.3604 10.7876V10.802C40.3464 10.9031 40.3324 11.0041 40.3043 11.1051C40.22 11.4658 40.1217 11.639 39.7566 11.6245C39.4039 11.6111 39.3307 11.2232 39.2656 10.8787C39.2608 10.8528 39.2559 10.8272 39.251 10.802C39.1948 10.5423 38.6472 9.56107 37.8046 9.46006C36.9479 9.35905 36.1474 9.87853 35.5576 10.4413C34.4061 11.5235 33.3107 12.9665 33.2967 14.6404C33.2967 15.3908 33.5213 16.1123 34.0269 16.6606C34.5044 17.1945 35.1504 17.512 35.8104 17.7284C36.4784 17.9473 37.17 18.0716 37.861 18.1958ZM28.3113 4.27971C30.8812 3.37063 33.9005 3.31291 36.2036 4.95792C36.4564 5.13107 36.5687 5.44853 36.4143 5.75156C36.2738 5.99687 35.9087 6.12674 35.67 5.95358C33.1422 4.14984 29.8841 4.68375 27.258 5.93915C22.3263 8.2802 18.5215 12.4429 14.8647 16.4435L14.7455 16.574C12.8215 18.6808 10.8133 20.6865 8.32768 22.0862C5.92627 23.4426 3.27209 24.2651 0.547689 24.5249C0.25278 24.5537 0 24.2507 0 23.9621C0 23.6447 0.25278 23.4282 0.547689 23.3993C3.52487 23.1252 6.41779 22.0718 8.93154 20.3979C11.0273 19.0045 12.7227 17.144 14.4167 15.285C14.6523 15.0264 14.888 14.7678 15.1246 14.5105C17.0064 12.447 18.9444 10.4269 21.093 8.65198C23.2557 6.84824 25.6571 5.20323 28.3113 4.27971Z" fill="#484848" fill-opacity="0.15"/>
</svg>
