<svg width="21" height="29" viewBox="0 0 21 29" fill="none" xmlns="http://www.w3.org/2000/svg">
<path fill-rule="evenodd" clip-rule="evenodd" d="M16.2279 2.03561C16.7504 1.88548 17.2729 1.73534 17.7954 1.6288C19.1655 1.35759 20.7562 2.48116 21 3.56599V26.7607C21 27.0836 20.7678 27.2127 20.5588 27.1869C20.2957 27.3429 19.9929 27.4401 19.7004 27.5339C19.6056 27.5643 19.5118 27.5944 19.4209 27.626C18.9565 27.781 18.5036 27.923 18.0392 28.0522C17.5748 28.1813 17.0987 28.3105 16.6227 28.4267C16.5396 28.4463 16.4565 28.4671 16.3734 28.4879C16.0728 28.5632 15.7708 28.6389 15.4616 28.6592C15.3106 28.7496 15.1016 28.7237 14.9855 28.5946C14.8113 28.4525 14.7765 28.1684 14.881 27.9876V20.6262C14.7068 20.9104 14.5327 21.1816 14.3585 21.4528C13.6327 22.6041 12.9721 23.8012 12.3113 24.9984C11.7565 26.0037 11.2017 27.0091 10.6082 27.9876H10.643C10.852 27.9489 11.061 28.0393 11.119 28.2846C11.1655 28.4913 11.061 28.7754 10.852 28.8141C10.5733 28.8658 9.55157 28.9691 9.53996 28.9691C9.18002 28.9949 8.82008 29.0079 8.46014 28.9949C5.70834 28.9304 3.04942 28.078 0.436945 27.1998C0.227948 27.2256 0.00734477 27.0836 0.00734477 26.7736V3.19147C0.00686554 3.18401 0.00638631 3.17667 0.00591522 3.16947C-0.00502733 3.00209 -0.0115698 2.90202 0.088616 2.7782C0.738831 2.00332 1.5516 1.44799 2.42243 1.04764C4.03635 0.298587 5.84767 0.0402937 7.58931 0.00154976C9.47029 -0.0242795 11.3513 0.272757 13.1394 0.89266C13.3019 0.957233 13.3948 1.0993 13.4064 1.24136C13.4412 1.3705 13.4296 1.52548 13.3251 1.65463L13.3251 1.65463C12.9652 2.08081 12.6053 2.50699 12.2221 2.92026C12.6633 2.85569 13.1161 2.7782 13.569 2.6878C14.2889 2.54574 14.9971 2.37784 15.7054 2.18412C15.8795 2.1357 16.0537 2.08565 16.2279 2.03561ZM9.99279 0.983064C8.22792 0.7506 6.42822 0.802258 4.68657 1.1897C3.40936 1.47382 2.12054 1.95166 1.11039 2.8686C2.13215 3.82429 3.32808 4.44419 4.62851 4.8058C7.34548 5.55485 10.2018 6.09726 13 5.78731C16.5182 5.39987 18.8287 4.2763 19.9898 3.20438C19.7692 2.84277 19.3396 2.63614 18.9797 2.53282C18.6894 2.45533 18.3875 2.40367 18.0856 2.4295C17.8113 2.4408 17.537 2.52132 17.2627 2.60183C17.2235 2.61333 17.1843 2.62484 17.1452 2.63614C16.4949 2.81694 15.8331 2.99775 15.1829 3.16564C13.8709 3.50142 12.524 3.75971 11.1771 3.86303C11.0262 3.87594 10.8868 3.75971 10.8288 3.61765C10.7359 3.47559 10.7243 3.26896 10.8868 3.11398C11.4093 2.61031 11.897 2.06789 12.373 1.51256C11.5951 1.2801 10.7939 1.08638 9.99279 0.983064ZM19.4002 26.767C19.6833 26.6788 19.9744 26.5881 20.2221 26.4249H20.2337V4.05675C19.1422 4.87037 17.9463 5.47736 16.6923 5.90354V12.8645C16.6923 13.4199 15.926 13.407 15.926 12.8645V6.13601C13.3484 6.84631 10.6662 6.79465 8.05375 6.3943C7.33387 6.27807 6.60238 6.13601 5.8825 5.98103C5.17423 5.82606 4.47757 5.67108 3.79252 5.43862C2.68948 5.07701 1.66771 4.47002 0.773667 3.66931V26.4249C0.849462 26.4505 0.9251 26.4761 1.00062 26.5017C1.57292 26.6953 2.13828 26.8866 2.7127 27.0577C3.74608 27.3806 4.81429 27.6647 5.8825 27.8714V17.0231C5.8825 16.4677 6.64882 16.4806 6.64882 17.0231V28.0005C7.62414 28.1426 8.61108 28.2071 9.59801 28.1297C9.96956 27.5485 10.3179 26.9544 10.6662 26.3474C10.9777 25.7989 11.2822 25.2452 11.587 24.691C11.9639 24.0056 12.3414 23.3193 12.733 22.6409C13.0813 22.021 13.4529 21.4011 13.836 20.807C14.2076 20.2259 14.5675 19.6576 14.881 19.0377C14.9042 18.9086 14.9855 18.8182 15.09 18.7794C15.1016 18.7665 15.1016 18.7665 15.1132 18.7665C15.1248 18.7665 15.1335 18.7633 15.1423 18.7601C15.151 18.7568 15.1597 18.7536 15.1713 18.7536C15.3803 18.702 15.6241 18.844 15.6357 19.1411V19.2056V27.8068C15.8099 27.7758 15.9841 27.7308 16.1582 27.6859C16.2743 27.6559 16.3904 27.626 16.5065 27.6002C16.9478 27.4968 17.389 27.3806 17.8302 27.2515C18.283 27.1223 18.7359 26.9802 19.1771 26.8382C19.2503 26.8138 19.325 26.7905 19.4002 26.767ZM2.57337 16.261V11.1081C2.57337 10.5657 3.3397 10.5657 3.3397 11.1081V16.261C3.3397 16.8164 2.57337 16.8035 2.57337 16.261Z" fill="#484848" fill-opacity="0.15"/>
</svg>
