<svg width="23" height="30" viewBox="0 0 23 30" fill="none" xmlns="http://www.w3.org/2000/svg">
<path fill-rule="evenodd" clip-rule="evenodd" d="M17.7734 2.53561C18.3456 2.38548 18.9179 2.23534 19.4902 2.1288C20.9907 1.85759 22.7329 2.98116 23 4.06599V27.2607C23 27.5836 22.7457 27.7127 22.5168 27.6869C22.2286 27.8429 21.897 27.9401 21.5766 28.0339C21.4728 28.0643 21.3701 28.0944 21.2705 28.126C20.7618 28.281 20.2659 28.423 19.7572 28.5522C19.2485 28.6813 18.7272 28.8105 18.2058 28.9267C18.1148 28.9463 18.0238 28.9671 17.9327 28.9879C17.6036 29.0632 17.2727 29.1389 16.9341 29.1592C16.7688 29.2496 16.5399 29.2237 16.4127 29.0946C16.222 28.9525 16.1838 28.6684 16.2982 28.4876V21.1262C16.1075 21.4104 15.9167 21.6816 15.726 21.9528C14.931 23.1041 14.2075 24.3012 13.4838 25.4984C12.8762 26.5037 12.2685 27.5091 11.6185 28.4876H11.6566C11.8855 28.4489 12.1144 28.5393 12.178 28.7846C12.2289 28.9913 12.1144 29.2754 11.8855 29.3141C11.5803 29.3658 10.4612 29.4691 10.4485 29.4691C10.0543 29.4949 9.66009 29.5079 9.26587 29.4949C6.25199 29.4304 3.33984 28.578 0.478559 27.6998C0.249657 27.7256 0.00804427 27.5836 0.00804427 27.2736V3.69147C0.0075194 3.68401 0.00699452 3.67667 0.00647857 3.66947C-0.00550612 3.50209 -0.0126717 3.40202 0.0970556 3.2782C0.809196 2.50332 1.69938 1.94799 2.65313 1.54764C4.42077 0.798587 6.40459 0.540294 8.31211 0.50155C10.3722 0.47572 12.4323 0.772757 14.3907 1.39266C14.5688 1.45723 14.6705 1.5993 14.6832 1.74136C14.7214 1.8705 14.7086 2.02548 14.5942 2.15463L14.5942 2.15463C14.2 2.58081 13.8058 3.00699 13.3861 3.42026C13.8693 3.35569 14.3653 3.2782 14.8613 3.1878C15.6497 3.04574 16.4254 2.87784 17.2011 2.68412C17.3919 2.6357 17.5826 2.58565 17.7734 2.53561ZM10.9445 1.48306C9.01153 1.2506 7.04043 1.30226 5.13291 1.6897C3.73406 1.97382 2.3225 2.45166 1.21614 3.3686C2.33522 4.32429 3.64504 4.94419 5.06932 5.3058C8.04505 6.05485 11.1734 6.59726 14.2381 6.28731C18.0913 5.89987 20.622 4.7763 21.8936 3.70438C21.652 3.34277 21.1815 3.13614 20.7873 3.03282C20.4694 2.95533 20.1387 2.90367 19.8081 2.9295C19.5076 2.9408 19.2072 3.02132 18.9068 3.10183C18.8639 3.11333 18.8209 3.12484 18.778 3.13614C18.0659 3.31694 17.341 3.49775 16.6289 3.66564C15.1919 4.00142 13.7167 4.25971 12.2416 4.36303C12.0763 4.37594 11.9237 4.25971 11.8601 4.11765C11.7584 3.97559 11.7456 3.76896 11.9237 3.61398C12.4959 3.11031 13.03 2.56789 13.5514 2.01256C12.6994 1.7801 11.8219 1.58638 10.9445 1.48306ZM21.2479 27.267C21.5579 27.1788 21.8767 27.0881 22.148 26.9249H22.1607V4.55675C20.9653 5.37037 19.6555 5.97736 18.2821 6.40354V13.3645C18.2821 13.9199 17.4428 13.907 17.4428 13.3645V6.63601C14.6196 7.34631 11.6821 7.29465 8.82078 6.8943C8.03234 6.77807 7.23118 6.63601 6.44274 6.48103C5.66701 6.32606 4.904 6.17108 4.15371 5.93862C2.94562 5.57701 1.82654 4.97002 0.847349 4.16931V26.9249C0.930364 26.9505 1.01321 26.9761 1.09592 27.0017C1.72273 27.1953 2.34193 27.3866 2.97105 27.5577C4.10285 27.8806 5.27279 28.1647 6.44274 28.3714V17.5231C6.44274 16.9677 7.28204 16.9806 7.28204 17.5231V28.5005C8.35025 28.6426 9.43118 28.7071 10.5121 28.6297C10.919 28.0485 11.3006 27.4544 11.6821 26.8474C12.0232 26.2989 12.3567 25.7453 12.6905 25.191C13.1034 24.5056 13.5167 23.8193 13.9456 23.1409C14.3271 22.521 14.7341 21.9011 15.1537 21.307C15.5607 20.7259 15.9549 20.1576 16.2982 19.5377C16.3237 19.4086 16.4127 19.3182 16.5272 19.2794C16.5399 19.2665 16.5399 19.2665 16.5526 19.2665C16.5653 19.2665 16.5748 19.2633 16.5844 19.2601C16.5939 19.2568 16.6035 19.2536 16.6162 19.2536C16.8451 19.202 17.1121 19.344 17.1248 19.6411V19.7056V28.3068C17.3156 28.2758 17.5064 28.2308 17.6971 28.1859C17.8243 28.1559 17.9514 28.126 18.0786 28.1002C18.5618 27.9968 19.0451 27.8806 19.5283 27.7515C20.0243 27.6223 20.5202 27.4802 21.0035 27.3382C21.0836 27.3138 21.1654 27.2905 21.2479 27.267ZM2.81846 16.761V11.6081C2.81846 11.0657 3.65776 11.0657 3.65776 11.6081V16.761C3.65776 17.3164 2.81846 17.3035 2.81846 16.761Z" fill="#FF8200"/>
</svg>
