<svg width="38" height="38" viewBox="0 0 38 38" fill="none" xmlns="http://www.w3.org/2000/svg">
<g clip-path="url(#clip0_436_4059)">
<g clip-path="url(#clip1_436_4059)">
<mask id="mask0_436_4059" style="mask-type:luminance" maskUnits="userSpaceOnUse" x="0" y="0" width="38" height="38">
<path d="M0 0H38V38H0V0Z" fill="white"/>
</mask>
<g mask="url(#mask0_436_4059)">
<path d="M26.7754 5.709C28.1084 5.709 33.6084 7.042 33.6084 13.459C33.6084 19.876 27.3474 29.189 24.9834 29.417C22.4004 29.667 20.7754 28.042 20.7754 25.417C20.7754 22.792 24.8584 21.084 22.9834 17.126C21.1084 13.167 20.6504 5.709 26.7754 5.709Z" fill="black"/>
<path d="M33.8572 7.94001C33.4252 8.67301 33.5342 9.53801 34.0992 9.87001C34.6652 10.203 35.4732 9.87701 35.9042 9.14301C36.3362 8.40901 36.2272 7.54401 35.6622 7.21201C35.0962 6.87901 34.2882 7.20601 33.8572 7.94001Z" fill="black"/>
<path d="M30.9538 5.07801C30.8368 5.92101 31.2958 6.68201 31.9788 6.77701C32.6628 6.87201 33.3128 6.26601 33.4308 5.42301C33.5478 4.57901 33.0888 3.81901 32.4048 3.72401C31.7218 3.62801 31.0708 4.23401 30.9538 5.07801Z" fill="black"/>
<path d="M27.7334 3.708C27.7334 4.629 28.3314 5.375 29.0674 5.375C29.8034 5.375 30.4004 4.629 30.4004 3.708C30.4004 2.788 29.8034 2.041 29.0674 2.041C28.3314 2.041 27.7334 2.788 27.7334 3.708Z" fill="black"/>
<path d="M23.9424 3.01999C23.9424 4.04399 24.5774 4.87399 25.3584 4.87399C26.1414 4.87399 26.7754 4.04399 26.7754 3.01999C26.7754 1.99599 26.1414 1.16599 25.3584 1.16599C24.5774 1.16599 23.9424 1.99599 23.9424 3.01999Z" fill="black"/>
<path d="M18.6354 5.17701C19.0134 6.63601 20.2394 7.58201 21.3764 7.28801C22.5134 6.99401 23.1274 5.57301 22.7494 4.11401C22.3724 2.65501 21.1464 1.70901 20.0094 2.00301C18.8724 2.29701 18.2584 3.71901 18.6354 5.17701Z" fill="black"/>
</g>
<mask id="mask1_436_4059" style="mask-type:luminance" maskUnits="userSpaceOnUse" x="0" y="0" width="38" height="38">
<path d="M0 0H38V38H0V0Z" fill="white"/>
</mask>
<g mask="url(#mask1_436_4059)">
<path d="M10.917 12.709C9.58398 12.709 4.08398 14.042 4.08398 20.459C4.08398 26.876 10.345 36.189 12.709 36.417C15.292 36.667 16.917 35.042 16.917 32.417C16.917 29.792 12.834 28.084 14.709 24.126C16.584 20.167 17.042 12.709 10.917 12.709Z" fill="black"/>
<path d="M3.83521 14.94C4.26721 15.673 4.15821 16.538 3.59321 16.87C3.02721 17.203 2.21821 16.877 1.78821 16.143C1.35621 15.409 1.46421 14.544 2.02921 14.212C2.59521 13.879 3.40421 14.206 3.83521 14.94Z" fill="black"/>
<path d="M6.73642 12.078C6.85342 12.921 6.39442 13.682 5.71142 13.777C5.02742 13.872 4.37742 13.266 4.25942 12.423C4.14242 11.579 4.60142 10.819 5.28542 10.724C5.96942 10.628 6.61842 11.234 6.73642 12.078Z" fill="black"/>
<path d="M9.95899 10.708C9.95899 11.629 9.36199 12.375 8.62599 12.375C7.88899 12.375 7.29199 11.629 7.29199 10.708C7.29199 9.78802 7.88899 9.04102 8.62599 9.04102C9.36199 9.04102 9.95899 9.78802 9.95899 10.708Z" fill="black"/>
<path d="M13.749 10.02C13.749 11.044 13.115 11.874 12.332 11.874C11.55 11.874 10.916 11.044 10.916 10.02C10.916 8.99601 11.55 8.16601 12.332 8.16601C13.115 8.16601 13.749 8.99601 13.749 10.02Z" fill="black"/>
<path d="M19.057 12.177C18.68 13.636 17.453 14.582 16.316 14.288C15.18 13.994 14.565 12.573 14.942 11.114C15.319 9.65499 16.546 8.70899 17.682 9.00299C18.819 9.29699 19.434 10.719 19.057 12.177Z" fill="black"/>
</g>
</g>
</g>
<defs>
<clipPath id="clip0_436_4059">
<rect width="38" height="38" fill="white"/>
</clipPath>
<clipPath id="clip1_436_4059">
<rect width="38" height="38" fill="white"/>
</clipPath>
</defs>
</svg>
